<svg width="512" height="512" viewBox="0 0 512 512" fill="none" xmlns="http://www.w3.org/2000/svg">
<path d="M26.4558 512.001C19.7115 512.001 12.9672 509.436 7.84305 504.273C-2.44378 493.986 -2.44378 477.309 7.84305 467.022L467.15 7.71512C477.437 -2.57171 494.114 -2.57171 504.401 7.71512C514.688 18.002 514.688 34.6795 504.401 44.9727L45.1007 504.273C39.938 509.404 33.1937 512.001 26.4558 512.001V512.001Z" fill="black"/>
<path d="M485.795 512.001C479.051 512.001 472.313 509.436 467.182 504.273L7.84305 44.9727C-2.44378 34.6795 -2.44378 18.002 7.84305 7.71512C18.1299 -2.57171 34.8074 -2.57171 45.1007 7.71512L504.401 467.022C514.688 477.309 514.688 493.986 504.401 504.273C499.239 509.404 492.501 512.001 485.795 512.001Z" fill="black"/>
</svg>
