<svg width="512" height="512" viewBox="0 0 512 512" fill="none" xmlns="http://www.w3.org/2000/svg">
<g clip-path="url(#clip0)">
<path d="M511.6 150.529C510.401 123.325 506.001 104.622 499.699 88.4157C493.198 71.2131 483.196 55.8117 470.092 43.0084C457.289 30.0059 441.786 19.9023 424.782 13.5026C408.482 7.20063 389.877 2.80133 362.673 1.60188C335.265 0.30084 326.564 0 257.05 0C187.537 0 178.836 0.30084 151.53 1.5003C124.325 2.69975 105.622 7.10295 89.4196 13.401C72.2131 19.9023 56.8117 29.9043 44.0084 43.0084C31.0059 55.8117 20.9062 71.3147 14.5026 88.318C8.20063 104.622 3.80133 123.223 2.60187 150.428C1.30084 177.836 1 186.536 1 256.05C1 325.564 1.30084 334.265 2.50029 361.571C3.69975 388.775 8.10295 407.478 14.405 423.684C20.9062 440.887 31.0059 456.288 44.0084 469.092C56.8117 482.094 72.3147 492.198 89.318 498.597C105.622 504.899 124.224 509.299 151.432 510.498C178.734 511.702 187.439 511.998 256.953 511.998C326.466 511.998 335.167 511.702 362.473 510.498C389.678 509.299 408.381 504.899 424.583 498.597C458.992 485.294 486.197 458.089 499.5 423.684C505.798 407.38 510.201 388.775 511.401 361.571C512.6 334.265 512.901 325.564 512.901 256.05C512.901 186.536 512.799 177.836 511.6 150.529ZM465.493 359.57C464.392 384.575 460.192 398.078 456.691 407.08C448.088 429.385 430.385 447.087 408.08 455.691C399.078 459.191 385.478 463.391 360.571 464.489C333.565 465.693 325.466 465.989 257.152 465.989C188.838 465.989 180.637 465.693 153.729 464.489C128.724 463.391 115.222 459.191 106.22 455.691C95.1199 451.588 85.0164 445.087 76.8156 436.585C68.3139 428.283 61.8127 418.281 57.7103 407.181C54.2096 398.179 50.0096 384.575 48.9117 359.672C47.7083 332.667 47.4114 324.563 47.4114 256.249C47.4114 187.935 47.7083 179.734 48.9117 152.831C50.0096 127.826 54.2096 114.323 57.7103 105.321C61.8127 94.2176 68.3139 84.118 76.9172 75.9133C85.2157 67.4116 95.2176 60.9103 106.322 56.8119C115.323 53.3112 128.928 49.1111 153.831 48.0094C180.836 46.8099 188.939 46.5091 257.25 46.5091C325.665 46.5091 333.765 46.8099 360.672 48.0094C385.677 49.1111 399.18 53.3112 408.181 56.8119C419.281 60.9103 429.385 67.4116 437.586 75.9133C446.087 84.2157 452.589 94.2176 456.691 105.321C460.192 114.323 464.392 127.923 465.493 152.831C466.693 179.836 466.994 187.935 466.994 256.249C466.994 324.563 466.693 332.565 465.493 359.57Z" fill="black"/>
<path d="M256.949 124.524C184.338 124.524 125.424 183.434 125.424 256.05C125.424 328.666 184.338 387.576 256.949 387.576C329.565 387.576 388.475 328.666 388.475 256.05C388.475 183.434 329.565 124.524 256.949 124.524ZM256.949 341.367C209.843 341.367 171.632 303.161 171.632 256.05C171.632 208.939 209.843 170.733 256.949 170.733C304.06 170.733 342.267 208.939 342.267 256.05C342.267 303.161 304.06 341.367 256.949 341.367Z" fill="black"/>
<path d="M424.384 119.324C424.384 136.281 410.636 150.029 393.675 150.029C376.719 150.029 362.97 136.281 362.97 119.324C362.97 102.364 376.719 88.6189 393.675 88.6189C410.636 88.6189 424.384 102.364 424.384 119.324Z" fill="black"/>
</g>
<defs>
<clipPath id="clip0">
<rect width="512" height="512" fill="white"/>
</clipPath>
</defs>
</svg>
