<svg width="512" height="512" viewBox="0 0 512 512" fill="none" xmlns="http://www.w3.org/2000/svg">
<path fill-rule="evenodd" clip-rule="evenodd" d="M408.54 69.7559C363.634 24.7969 303.912 0.0263672 240.288 0C109.185 0 2.48535 106.696 2.43262 237.835C2.41504 279.756 13.3662 320.678 34.1816 356.748L0.4375 480L126.528 446.924C161.271 465.876 200.386 475.863 240.191 475.875H240.291C371.38 475.875 478.091 369.17 478.141 238.025C478.167 174.469 453.449 114.712 408.54 69.7559ZM240.288 435.706H240.206C204.733 435.691 169.943 426.158 139.586 408.149L132.37 403.863L57.5459 423.492L77.5176 350.54L72.8154 343.061C53.0254 311.584 42.5752 275.203 42.5928 237.85C42.6338 128.851 131.321 40.1719 240.367 40.1719C293.172 40.1895 342.81 60.7793 380.134 98.1475C417.458 135.516 438.001 185.186 437.983 238.011C437.937 347.019 349.255 435.706 240.288 435.706ZM348.728 287.643C342.786 284.666 313.565 270.293 308.116 268.307C302.673 266.323 298.706 265.336 294.748 271.283C290.784 277.23 279.396 290.619 275.928 294.583C272.459 298.55 268.996 299.048 263.052 296.071C257.107 293.098 237.959 286.819 215.257 266.572C197.591 250.813 185.664 231.352 182.195 225.404C178.732 219.451 182.166 216.545 184.803 213.275C191.236 205.286 197.679 196.91 199.659 192.946C201.643 188.979 200.649 185.508 199.161 182.534C197.679 179.561 185.793 150.308 180.842 138.404C176.014 126.82 171.118 128.385 167.468 128.203C164.005 128.03 160.041 127.995 156.077 127.995C152.116 127.995 145.677 129.48 140.228 135.434C134.781 141.384 119.43 155.76 119.43 185.013C119.43 214.266 140.726 242.525 143.696 246.492C146.667 250.459 185.605 310.488 245.222 336.229C259.401 342.357 270.47 346.011 279.104 348.75C293.342 353.273 306.294 352.635 316.536 351.105C327.956 349.397 351.695 336.727 356.652 322.846C361.604 308.962 361.604 297.064 360.115 294.583C358.633 292.104 354.669 290.619 348.728 287.643Z" fill="black"/>
</svg>
